<?xml version="1.0" standalone="no"?><!DOCTYPE svg PUBLIC "-//W3C//DTD SVG 1.1//EN" "http://www.w3.org/Graphics/SVG/1.1/DTD/svg11.dtd"><svg t="1711183932931" class="icon" viewBox="0 0 1024 1024" version="1.1" xmlns="http://www.w3.org/2000/svg" p-id="4279" xmlns:xlink="http://www.w3.org/1999/xlink" width="200" height="200" style="fill:hsla(0, 0%, 100%, .7)"><path d="M987.100279 949.557581H36.947349a36.923535 36.923535 0 1 0 0 73.870884H987.112186a36.935442 36.935442 0 0 0-0.011907-73.870884z m-502.772093-78.943255a37.864186 37.864186 0 0 0 26.933581 11.275907c10.537674 0 20.015628-4.310326 26.838326-11.311628l458.882977-458.882977c6.906047-6.858419 11.240186-16.348279 11.275907-26.814512a37.923721 37.923721 0 0 0-37.864186-37.828465 37.483163 37.483163 0 0 0-26.778791 11.121116L549.090233 752.675721V38.507163c-0.047628-0.035721-0.047628-0.035721-0.047628-0.071442a37.780837 37.780837 0 0 0-37.757024-37.864186 37.840372 37.840372 0 0 0-37.828465 37.864186s0 0.035721 0.035721 0.071442V752.64L79.002791 358.149953a37.888 37.888 0 0 0-64.678698 26.671628c0 10.501953 4.298419 20.075163 11.192558 26.850233l458.811535 458.942512z m0 0" p-id="4280"></path></svg>