<svg xmlns="http://www.w3.org/2000/svg" width="534" height="120" viewBox="0 0 534 120">
  <defs>
    <style>
      .cls-1 {
        fill: #f5c51e;
        fill-rule: evenodd;
      }
    </style>
  </defs>
  <path id="形状_2_拷贝_9" data-name="形状 2 拷贝 9" class="cls-1" d="M526.941,28.992H499.554L501.539,10h32.109l-1.39,13.3ZM514.165,15.7l-0.794,7.6h5.666l0.794-7.6h-5.666Zm-21.221,13.3H465.557l0.6-5.7h0l0.794-7.6L464.709,10h34.942l-1.39,13.3ZM480.168,15.7l-0.794,7.6h5.666l0.794-7.6h-5.666Zm-17.94,18.58h29.229l0.344-2.849h13.221l-0.3,2.849h17l0.3-2.849h9.443l-0.3,2.849H534l-3.428,5.7H504.117l-0.021.2,7.575,9.055h18.653l-0.6,5.7H503.217L496.6,47.1l-8.472,7.828H462.679l-2.237-5.7h20.582l9.722-9.055,0.024-.2h-26.3ZM475.7,58.432h18.888l-0.6,5.7h0l-0.794,7.6-5.317,5.7H460.5l1.39-13.3-2.238-5.7H475.7Zm4.277,13.3,0.794-7.6h-5.666l-0.794,7.6h5.666ZM459.927,86.922c4.5,0,7.58.609,9.79,3a12.926,12.926,0,0,1,2.507,4.1,13.463,13.463,0,0,1,.638,2.412,16.939,16.939,0,0,1,.212,2.8v1.621l-0.17,1.323a20.355,20.355,0,0,1-3.123,8.152,18.366,18.366,0,0,1-6.651,6.146c-2.777,1.536-5.5,1.794-8.869,1.794-4.562,0-8.307-.706-10.53-3.139A12.872,12.872,0,0,1,440.4,106.1l0.127-1.2,0.128-1.408,0.127-1.237a21.745,21.745,0,0,1,3.187-7.918,17.383,17.383,0,0,1,5.18-4.964l-2.438-2.452h12.276l-0.021.007Q459.443,86.923,459.927,86.922Zm-9.418,18.4c0,3.951,1.551,5.339,4.7,5.339,2.493,0,4.44-.614,5.8-3.015a15.607,15.607,0,0,0,2.04-7.823,7.268,7.268,0,0,0-1.169-4.37,4.8,4.8,0,0,0-3.838-1.886C453.675,93.57,451.3,97.68,450.509,105.325Zm2.431-27.9H439.719l-1.176-20.733-3.256,15.035h0.306l-0.6,5.7h-15.11l0.6-5.7h1.583L434.2,15.7h-0.306L431.657,10h17l-6.992,32.289h9.284l1.67,29.44h1.863l-0.6,5.7H452.94ZM418.79,51.784l3.177-30.39h5.666l-3.176,30.39H418.79ZM418.6,71.728l-0.6,5.7H401L408.048,10h13.221l-6.452,61.729H418.6ZM404.373,27.093H400.6L398.61,46.086h3.777l-0.6,5.7h-3.778l-2.679,25.641h-17l0.6-5.7h3.777l2.084-19.943h-3.777l0.6-5.7h3.777l1.985-18.994H383.6l0.6-5.7h3.778l0.595-5.7L386.328,10h16.054l-0.6,5.7h0l-0.6,5.7h3.777Zm-28.68-5.7h-4.722l-0.6,5.7H357.155l0.6-5.7h-5.666l-0.6,5.7H338.267l0.6-5.7h-4.722l0.6-5.7h4.722l0.595-5.7h13.221l-0.595,5.7h5.666l0.595-5.7h13.221l-0.595,5.7h7.555Zm-0.993,9.5h0l-0.893,8.547h0l-0.6,5.7h0l-0.5,4.748-5.317,5.7H356.984l-1.346,1.9h16.283l-0.595,5.7H351.6L341.506,77.426H328.285l0.6-5.7h3.442l6.056-8.547h-8.605l0.6-5.7h12.048l1.346-1.9H330.568l0.6-5.7h0l0.5-4.748h0l0.572-5.476,0.52-4.971h0l0.595-5.7H374.9ZM344.385,49.885h15.109l0.5-4.748h-15.11Zm1.588-15.195-0.5,4.748h15.11l0.5-4.748H345.973Zm-14.316-7.6H324.1l-5.261,50.333h-13.22l5.26-50.333h-7.555l-2.237-5.7h10.388l0.6-5.7L309.835,10h16.054l-1.191,11.4h7.554Zm-23.062,3.8-4.268,40.836h-5.666l4.268-40.836H308.6Zm-15.657-3.8-2.978,28.49-5.317,5.7H256.868l-9.74,10.356,3.313-10.356H223.26l3.573-34.188-2.237-5.7h31.718l10.609-11.387-3.945,11.387h33.389Zm-52.884,0L238.67,40.332l12.335-13.239H240.054Zm-1.978,18.929-1,9.561h15.188l3.059-9.561H238.076Zm38.663,9.561,1.814-17.356L262.228,55.583h14.511Zm-15.734-28.49-3.088,8.915h20.868l0.932-8.915H261.005ZM255.117,10h9.454l-9.454,9.481V10ZM193.038,43.237l0.595-5.7h9.444l-0.6,5.7h-9.443ZM203.97,28.992l-0.6,5.7h-9.443l0.595-5.7h9.444Zm-26.442,0-0.6,5.7h-9.443l0.595-5.7h9.444ZM166.6,43.237l0.6-5.7h9.444l-0.6,5.7H166.6ZM194.027,15.7l-0.595,5.7h26.442l-2.482,23.742H204.171l1.886-18.044H192.836l-2.283,21.843H217l-0.595,5.7h0l-0.6,5.7h0l-0.595,5.7h0l-0.6,5.7-5.317,5.7H147.912l2.383-22.793-2.238-5.7h29.275l2.283-21.843H166.394l-1.886,18.044H151.287l1.886-18.044-2.237-5.7h29.275l0.595-5.7H154.364L152.127,10H223.9l-3.429,5.7H194.027Zm-32.3,56.031H174.95l0.6-5.7H162.325Zm1.787-17.094-0.6,5.7h13.221l0.6-5.7H163.516Zm24.655,17.094h13.221l0.6-5.7H188.767Zm1.191-11.4h13.221l0.6-5.7H189.958ZM148.288,86.922h13.221l-4.722,23.742h14.166l-0.945,7.6H145.455l5.23-28.929ZM72.7,35L65.485,56.093h18.2L56.844,85l6.564-20.778H45.824ZM65.75,119.969H45.813V90H65.75A30,30,0,1,0,35.9,59H35.875V80H5.969V59H5.981A59.781,59.781,0,1,1,65.75,119.969ZM5.969,90H35.875v29.969H5.977v0.025L0,119.983l5.969-5.99V90ZM189.4,89.333l-2.4-2.411h16.054a25.473,25.473,0,0,1,3.947.461,16.625,16.625,0,0,1,3.358.833,9.4,9.4,0,0,1,4.844,3.568A10.778,10.778,0,0,1,217,98.131l-0.127,2.051-0.213,1.624a22.731,22.731,0,0,1-3.7,9.36,14.289,14.289,0,0,1-6.523,5.128,24.475,24.475,0,0,1-9.04,1.968h-15.11l2.308-2.321Zm10.4,21.4q7.14,0,8.627-8.59a19.76,19.76,0,0,0,.255-2.948,4.457,4.457,0,0,0-1.488-3.782q-1.488-1.132-5.014-1.132h-4.576l-2.889,16.453H199.8Zm33.042-21.4-2.4-2.411h15.11l1.508,15.164-5.629,12.541-1.545-16.308-0.586,4.171c-0.368,3.675-.944,9.163-2.247,15.772H225.726l2.308-2.322Zm14.6,16.583,7.327-16.374-2.6-2.62h16.054l-4.722,31.34H253.112l2.6-10.6,0.765-3.932,1.36-5.41-8.5,19.943h-7.459l5.565-12.4Zm40.232-28.49H248.015l0.5-4.748h0l0.1-.95h0.754l7.674-8.547h5.686l-0.893,8.547h26.442Zm-6.235,9.5h12.276l7.555,17.095,1.265-6.954,1.187-7.675-2.452-2.466h12.277l-4.722,31.34h-9.443l-8.5-17.094-2.833,17.094h-8.5L283.9,89.4ZM331.26,30.891l-4.268,40.836h-5.666l4.268-40.836h5.666Zm2.195,59.3c0.262-.18.523-0.349,0.784-0.511l-2.745-2.76h12.158c0.353-.01.708-0.016,1.069-0.013,6.845,0.055,10.008,1.108,12.468,5.9a13.981,13.981,0,0,1,1.53,6.476,19.976,19.976,0,0,1-1.573,7.625,18.439,18.439,0,0,1-1.785,3.494,14.085,14.085,0,0,1-2.379,2.9l3.065,4.96h-5.666l-2.924-1.114c-2.465,1-5.491,1.114-8.408,1.114-3.488,0-6.095-.074-9.037-2.516a11.806,11.806,0,0,1-3.038-3.964q-0.255-.639-0.468-1.236-0.042-.128-0.382-1.322a14.892,14.892,0,0,1-.255-2.9l0.425-3.836Q327.824,94.051,333.455,90.194Zm7.33,21.014h0.723a2.287,2.287,0,0,0,.85-0.3l-2.805-3.5,5.057-4.53,2.677,3.461q0.255-.765.553-1.789,0.168-.639.382-1.554a16.181,16.181,0,0,0,.3-1.6,12.019,12.019,0,0,0,.085-1.491A9.062,9.062,0,0,0,348.1,96.8a4.291,4.291,0,0,0-1.53-2.129,4.67,4.67,0,0,0-2.763-.809,6.193,6.193,0,0,0-5.694,3.487,29.3,29.3,0,0,0-1.487,3.827,16.055,16.055,0,0,0-.553,4.04Q336.068,111.209,340.785,111.208Zm9.979-46.128h13.222l3.15,6.648h3.3l-0.6,5.7H356.616Zm30.307,43.991-1.615,8.847h-8.924l1.487-8.847h9.052Zm15.255-6.3a20.371,20.371,0,0,1,3.868-9.262,18.6,18.6,0,0,1,4.472-4.225l-2.345-2.359H414.6c4.772,0,5.879-.031,8.46,1.458a8.735,8.735,0,0,1,3.824,4.557,13.542,13.542,0,0,1,.638,2.769l0.17,3.195H418.17a8.6,8.6,0,0,0-.277-2.479,3.192,3.192,0,0,0-1.041-1.5,6.174,6.174,0,0,0-3.2-1.347,6.036,6.036,0,0,0-4.769,2.824,15.149,15.149,0,0,0-2.528,6.373l-0.34,3.155c0,3.553,1.574,4.742,4.8,4.742,2.89,0,4.97-1.165,6.16-4.669h9.646a18.332,18.332,0,0,1-3.336,6.538,16.507,16.507,0,0,1-5.885,4.615c-3,1.176-3.42,1.114-7.529,1.114-4.335,0-7.756-.571-10.192-2.733a11.281,11.281,0,0,1-2.763-3.927,14.391,14.391,0,0,1-.935-5.207l0.043-1.878Zm89.714,6.866L489.6,89.957l0.113-.624-2.4-2.411h15.11l1.508,15.164-5.63,12.541-1.544-16.308-0.586,4.171c-0.369,3.675-.945,9.163-2.247,15.772H482.591l2.309-2.322Zm18.272-3.718,7.327-16.374-2.606-2.62h16.055l-4.722,31.34H509.978l2.6-10.6,0.765-3.932,1.36-5.41-8.5,19.943h-7.458l5.565-12.4Zm3.4-28.49H494.492l0.6-5.7h0l0.794-7.6h0l0.595-5.7h32.109l-1.39,13.3-5.317,5.7H507.713Zm1.39-13.3-0.794,7.6h5.666l0.794-7.6H509.1Z"/>
</svg>
